<?xml version="1.0" encoding="utf-8"?>
<!-- Generator: Adobe Illustrator 23.0.6, SVG Export Plug-In . SVG Version: 6.00 Build 0)  -->
<svg version="1.1" id="Layer_1" xmlns="http://www.w3.org/2000/svg" xmlns:xlink="http://www.w3.org/1999/xlink" x="0px" y="0px"
	 viewBox="0 0 612 793.22" style="enable-background:new 0 0 612 793.22;" xml:space="preserve">
<style type="text/css">
	.st0{fill:#A8CDCC;}
	.st1{fill:#EFABAE;}
	.st2{fill:#FFFFFF;}
	.st3{font-family:'MyanmarMN-Bold';}
	.st4{font-size:24px;}
	.st5{letter-spacing:1;}
	.st6{font-size:20px;}
</style>
<rect x="197.57" y="89.36" class="st0" width="82.8" height="206.58"/>
<rect x="-1.16" y="1.46" class="st1" width="281.53" height="87.9"/>
<rect y="697.54" class="st1" width="612" height="95.68"/>
<rect x="263.52" y="311.25" class="st1" width="11.04" height="437.72"/>
<rect x="-1.16" y="43.94" class="st1" width="23.76" height="283.77"/>
<text transform="matrix(1 0 0 1 46.1411 65.3336)"><tspan x="0" y="0" class="st2 st3 st4 st5">S</tspan><tspan x="17.1" y="0" class="st2 st3 st4 st5">aman</tspan><tspan x="86.45" y="0" class="st2 st3 st4 st5">t</tspan><tspan x="97.98" y="0" class="st2 st3 st4 st5">ha </tspan><tspan x="136.91" y="0" class="st2 st3 st4 st5">Sc</tspan><tspan x="169.59" y="0" class="st2 st3 st4 st5">u</tspan><tspan x="185.46" y="0" class="st2 st3 st4 st5">l</tspan><tspan x="193.83" y="0" class="st2 st3 st4 st5">l</tspan><tspan x="202.1" y="0" class="st2 st3 st4">y</tspan></text>
<rect x="-1.16" y="311.25" class="st1" width="275.72" height="16.46"/>
<text transform="matrix(-6.123234e-17 1 -1 -6.123234e-17 240.7773 95.6103)"><tspan x="0" y="0" class="st2 st3 st6 st5">G</tspan><tspan x="18.72" y="0" class="st2 st3 st6 st5">r</tspan><tspan x="28.86" y="0" class="st2 st3 st6 st5">a</tspan><tspan x="41.14" y="0" class="st2 st3 st6 st5">p</tspan><tspan x="54.83" y="0" class="st2 st3 st6 st5">h</tspan><tspan x="68.08" y="0" class="st2 st3 st6 st5">ic</tspan><tspan x="88.31" y="0" class="st2 st3 st6 st5"> </tspan><tspan x="95.12" y="0" class="st2 st3 st6 st5">De</tspan><tspan x="126.44" y="0" class="st2 st3 st6 st5">s</tspan><tspan x="137.47" y="0" class="st2 st3 st6 st5">i</tspan><tspan x="144.72" y="0" class="st2 st3 st6 st5">gn</tspan><tspan x="172.95" y="0" class="st2 st3 st6 st5">e</tspan><tspan x="186.33" y="0" class="st2 st3 st6">r</tspan></text>
<rect x="295.85" y="327.71" class="st1" width="275.72" height="3.13"/>
<rect x="295.85" y="135.06" class="st1" width="275.72" height="3.13"/>
<rect x="0" y="453.46" class="st0" width="257.77" height="4.38"/>
</svg>
